<svg width="33" height="33" viewBox="0 0 33 33" fill="none" xmlns="http://www.w3.org/2000/svg">
<path d="M10.6283 1.58554C10.132 0.386707 8.82363 -0.251379 7.57324 0.0902228L1.90137 1.6371C0.779883 1.94647 0 2.96483 0 4.12499C0 20.0707 12.9293 33 28.875 33C30.0352 33 31.0535 32.2201 31.3629 31.0986L32.9098 25.4267C33.2514 24.1764 32.6133 22.868 31.4144 22.3717L25.2269 19.7935C24.1764 19.3553 22.9582 19.6582 22.2428 20.5412L19.6389 23.7187C15.1014 21.5724 11.4275 17.8986 9.28125 13.3611L12.4588 10.7637C13.3418 10.0418 13.6447 8.83006 13.2064 7.77948L10.6283 1.59198V1.58554Z" fill="white"/>
</svg>
