<svg width="30" height="30" viewBox="0 0 30 30" fill="none" xmlns="http://www.w3.org/2000/svg">
<path d="M15 30C23.2852 30 30 23.2852 30 15C30 6.71484 23.2852 0 15 0C6.71484 0 0 6.71484 0 15C0 23.2852 6.71484 30 15 30ZM11.6836 18.3164C13.5117 20.1445 16.4824 20.1445 18.3105 18.3164C18.8613 17.7656 19.752 17.7656 20.2969 18.3164C20.8418 18.8672 20.8477 19.7578 20.2969 20.3027C17.3672 23.2324 12.6211 23.2324 9.69141 20.3027C6.76172 17.373 6.76172 12.627 9.69141 9.69727C12.6211 6.76758 17.3672 6.76758 20.2969 9.69727C20.8477 10.248 20.8477 11.1387 20.2969 11.6836C19.7461 12.2285 18.8555 12.2344 18.3105 11.6836C16.4824 9.85547 13.5117 9.85547 11.6836 11.6836C9.85547 13.5117 9.85547 16.4824 11.6836 18.3105V18.3164Z" fill="white"/>
</svg>
