<svg width="33" height="26" viewBox="0 0 33 26" fill="none" xmlns="http://www.w3.org/2000/svg">
<path d="M0 4.65442C0 2.376 1.84658 0.529419 4.125 0.529419H28.875C31.1502 0.529419 33 2.376 33 4.65442V21.1544C33 23.4296 31.1502 25.2794 28.875 25.2794H4.125C1.84658 25.2794 0 23.4296 0 21.1544V4.65442ZM3.09375 4.65442V6.07883L14.2119 15.2054C15.5396 16.3011 17.4604 16.3011 18.7881 15.2054L29.9062 6.07883V4.59641C29.9062 4.08723 29.4422 3.56516 28.875 3.56516H4.125C3.55523 3.56516 3.09375 4.08723 3.09375 4.59641V4.65442ZM3.09375 10.0814V21.1544C3.09375 21.7216 3.55523 22.1857 4.125 22.1857H28.875C29.4422 22.1857 29.9062 21.7216 29.9062 21.1544V10.0814L20.7539 17.5966C18.2789 19.6269 14.7211 19.6269 12.1881 17.5966L3.09375 10.0814Z" fill="white"/>
</svg>
