<svg width="41" height="49" viewBox="0 0 41 49" fill="none" xmlns="http://www.w3.org/2000/svg">
<path d="M29.5208 30.5H27.7104L27.0688 29.7575C29.3146 26.6225 30.6667 22.5525 30.6667 18.125C30.6667 8.2525 23.9979 0.25 15.7708 0.25C7.54375 0.25 0.875 8.2525 0.875 18.125C0.875 27.9975 7.54375 36 15.7708 36C19.4604 36 22.8521 34.3775 25.4646 31.6825L26.0833 32.4525V34.625L37.5417 48.3475L40.9562 44.25L29.5208 30.5ZM15.7708 30.5C10.0646 30.5 5.45833 24.9725 5.45833 18.125C5.45833 11.2775 10.0646 5.75 15.7708 5.75C21.4771 5.75 26.0833 11.2775 26.0833 18.125C26.0833 24.9725 21.4771 30.5 15.7708 30.5Z" fill="white"/>
</svg>
